PathFileType	4	(X/Y/Z)	Patient4_TMGait_0pt7_02_left_19.trc.trc
DataRate	CameraRate	NumFrames	NumMarkers	Units	OrigDataRate	OrigDataStartFrame	OrigNumFrames
86.419753086420	86.419753086420	4	33	mm	86.419753086420	36	       141
Frame#	Time	Sacral			L.Shoulder			Chest			R.Shoulder			Neck			R.ASIS			L.ASIS			R.Thigh.Superior			R.Thigh.Lateral			R.Thigh.Inferior			R.Patella			L.Thigh.Superior			L.Thigh.Lateral			L.Thigh.Inferior			L.Patella			L.Shank.Superior			L.Shank.Lateral			L.Shank.Inferior			R.Shank.Superior			R.Shank.Lateral			R.Shank.Inferior			R.Heel			R.Midfoot.Superior			R.Midfoot.Lateral			R.Toe			L.Heel			L.Midfoot.Lateral			L.Midfoot.Superior			L.Toe			L.Elbow			L.Wrist			R.Elbow			R.Wrist			
		X1	Y1	Z1	X2	Y2	Z2	X3	Y3	Z3	X4	Y4	Z4	X5	Y5	Z5	X6	Y6	Z6	X7	Y7	Z7	X8	Y8	Z8	X9	Y9	Z9	X10	Y10	Z10	X11	Y11	Z11	X12	Y12	Z12	X13	Y13	Z13	X14	Y14	Z14	X15	Y15	Z15	X16	Y16	Z16	X17	Y17	Z17	X18	Y18	Z18	X19	Y19	Z19	X20	Y20	Z20	X21	Y21	Z21	X22	Y22	Z22	X23	Y23	Z23	X24	Y24	Z24	X25	Y25	Z25	X26	Y26	Z26	X27	Y27	Z27	X28	Y28	Z28	X29	Y29	Z29	X30	Y30	Z30	X31	Y31	Z31	X32	Y32	Z32	X33	Y33	Z33	

36	21.905000000000	841.518760014529	1003.619354956004	455.907218930504	1028.442140037606	1413.019005344391	253.800898058310	1141.954494704213	1344.259594684570	409.150148127174	1077.623346399500	1435.607485407258	582.233464282871	1047.320083079218	1478.900629089735	404.879795219819	1061.933743378994	930.827702293536	572.854595796146	1053.740392396004	942.545369677435	297.956025618689	1071.824263420684	718.016076903038	556.924629001796	971.239240366765	620.321596948398	615.686853155625	1045.889116528044	552.084064820016	546.273452521235	1024.812050820696	448.814190997256	562.184908169384	1131.045303632179	767.079700864821	339.488071944242	1075.160026828927	636.557796602903	268.904862327945	1171.763083350405	575.441931043875	335.702634293243	1186.368344129164	503.634962025575	342.510108325461	1165.897193568522	427.631009531967	331.357394166880	1090.149322969859	306.840026167686	271.768076156106	1149.605584914291	198.664876411388	342.607421218959	951.327797887772	382.203168384196	564.309570416891	832.967829016515	331.309741691514	620.718616076034	828.723467550875	222.929134937411	566.204453343068	633.782775235651	125.973313925099	530.932351477348	810.094543347660	110.808022440905	575.355163113910	703.756193652966	83.496586731090	605.903035535913	897.784691208163	33.123432012219	601.531356068636	1032.043904135708	38.760782995901	376.110343578786	1109.570240093834	35.766859400703	298.429204652599	1189.907907122816	97.939479845834	329.396182906253	1320.301771500463	48.325306470378	307.353723070971	873.511229572142	1092.429048333847	177.037036249854	812.748937731754	840.910005058708	215.823371821304	1214.199576229952	1131.512231190405	708.694896744664	1380.677230235015	1242.632626993149	559.320464451742	
37	21.916571428571	842.013155010485	1005.166135620746	452.891226917032	1029.552188557080	1414.709933328417	251.743744061819	1142.581184549371	1346.034108129765	407.431440216055	1077.463161642806	1437.134363226024	580.471631409081	1047.750577684514	1480.542554845189	402.909701732837	1062.096189158696	932.239291276107	570.207657112330	1054.876283976951	944.201869256797	295.504291400405	1076.640824440733	720.404530407906	555.446195007297	978.607214865989	620.858996807202	614.514889443961	1055.657596049362	553.673982094107	545.807329511991	1035.748125440033	448.751510024527	563.109195670885	1130.818787094422	766.465397678567	335.940350720266	1072.186891019529	636.528538964757	266.884381269092	1168.387586776038	574.482137262776	333.422541619814	1182.120291861262	502.828281109372	340.707774230203	1160.923882164600	427.055040527017	329.749852993559	1083.908667776639	306.736155414811	270.902616661391	1142.580463825194	198.367288499332	341.963180564874	959.871547251133	383.409360868695	564.644681894188	839.094142731278	337.163839636904	620.071747738467	831.862619562757	228.502247538078	566.564184307427	634.063427500830	140.839218261599	529.988018644352	808.864523901697	115.203233397255	575.999712749459	700.812414153335	93.856753350499	605.147997054862	890.644661300340	32.077290667439	601.814502759532	1024.028310800044	38.656499868918	375.995749302536	1101.519678821123	35.718928727031	298.282630451969	1181.750977011493	98.007888597065	329.199465896480	1312.195995953298	48.626784774940	307.170126191228	880.661524250166	1090.721067516779	173.274506346026	827.923220995803	837.207189008369	210.293232677678	1204.076749515895	1128.278456579098	709.335340547554	1374.019309120406	1233.641904786555	559.789754637332	
38	21.928142857143	842.296114244288	1006.651330140237	449.967853172111	1030.796649869047	1416.330895939085	249.761143633995	1143.140718564788	1347.740381848379	405.919520176780	1077.023139349806	1438.585402317518	578.833652736966	1048.045428238537	1482.123481034071	400.996468414450	1062.060802399304	933.565634914502	567.802125412429	1055.845104064461	945.768280161100	293.335044386409	1081.701374401592	723.083964335238	554.085627190215	986.474783885791	621.594636660390	613.498327466935	1065.837130419499	555.658307038525	545.310294889070	1047.239925142320	449.172728349881	563.743606380845	1130.027496560450	765.532035752919	332.483338055795	1068.691591866249	636.480404516938	264.800509159918	1164.392453426324	573.428905213863	331.131572199066	1177.203089724187	501.944720971429	338.702704437947	1155.349475743224	426.462877945830	327.970862741290	1077.174847818323	306.512198851811	269.962662419324	1135.314705090256	198.076040823894	341.222344486102	969.157243238360	384.931352761309	564.726565716158	846.230388722036	343.263459478989	619.230438762005	835.949047304396	234.546665814697	566.576089342401	635.798851059703	156.401678034135	528.562316738957	808.492950930270	120.416069292667	576.367086432000	698.986434201045	105.215183646627	604.063571236525	884.146036781754	31.305530907218	602.205039923276	1015.972491785560	38.569536474405	375.908787321034	1093.424542462437	35.622920073226	298.152314882195	1173.605342352028	97.991636985533	328.972477405158	1304.085961551345	48.735117138597	306.998498699170	887.934379114384	1089.155882777715	169.444062073225	844.088136307693	833.741260965186	204.451856131555	1193.055568259969	1125.178875303826	709.955899019724	1367.391903111871	1223.162893271426	560.598871744869	
39	21.939714285714	842.356202731967	1008.031776817365	447.163583812612	1032.170927719786	1417.832039902993	247.865127564445	1143.618890731805	1349.320054414017	404.630661645897	1076.318770358169	1439.939284067915	577.325266659639	1048.234622542428	1483.617273503042	399.148946865428	1061.828353494317	934.785899961127	565.655475403631	1056.618032675694	947.241341412246	291.428299877957	1086.913509888920	726.071073184444	552.777171762528	994.772870930486	622.587141264476	612.631300958960	1076.298833702250	558.081041526502	544.752658525067	1059.185697792586	450.121426321202	564.083469723736	1128.723170954432	764.420844978551	329.169370980304	1064.815327173850	636.488107154404	262.676045407422	1159.913959717789	572.365200727951	328.836172853692	1171.759858866099	501.041947914403	336.523523651870	1149.315253583110	425.885805539818	326.066033285655	1070.083804182616	306.224678204428	268.927349277464	1127.867241940060	197.806196107672	340.398399091981	979.088790083413	386.794287452811	564.560618015094	854.284417427054	349.545905201122	618.191713038640	840.966956547833	240.986058970148	566.221287679644	639.002660908053	172.282583113055	526.656380270069	809.074306613356	126.399689207746	576.416004825633	698.413712812494	117.316062813150	602.645402886762	878.566289479898	31.037311942008	602.670510501933	1007.877528275511	38.509131935611	375.831035009468	1085.291329276126	35.497437691849	298.026736446940	1165.475716697878	97.909451902819	328.714219717877	1295.974614696043	48.675832274335	306.838041902309	895.379192937868	1087.667587619335	165.567016411121	861.176579757829	830.550502145517	198.354654152411	1181.228654830891	1122.271446437235	710.515344951474	1360.718827676123	1211.195580202782	561.780860428302	
